:SAMPLES-PER-SECOND 30
:FULLY-SPECIFIED
:DEGREES
16
root  -64.3506 38.8816 1.24568 -55.4394 84.5046 -53.0831
RightUpLeg  12.5531 0.679271 8.59677
RightLeg  9.06848 9.74743 1.31864
RightFoot  -13.1604 0.00323843 -5.03176
RightToes  1.80444e-009 -3.18055e-015 8.94531e-016
Spine  -1.45707 5.52228 17.83
Spine1  11.8777 8.74116 -12.034
HEad  -7.1206 -6.1535 4.42594
LeftShoulder1  0 -2.69403e-036 -1.28585e-037
LeftArm  7.15011 58.0095 -47.8227
LeftForeArm  -0.0486098 -2.42429 -5.81003
LeftHand  1.10738 8.58446 -6.62509
RightShoulder  -2.48481e-017 0 -8.08114e-019
RightArm  18.427 10.6798 73.7981
RightForeArm  -42.5784 27.8922 -25.3264
RightHand  1.69464 -13.513 -5.77072
LeftUpLeg  -24.3161 -1.91834 1.83652
LeftLeg  -3.7006 -4.56341 -0.332675
LeftFoot  4.50145 1.12017 -7.05883
LeftToes  -1.10049e-010 -1.44524e-010 4.8374e-011
17
root  -62.4217 38.5093 1.21905 -53.5056 84.2356 -51.7027
RightUpLeg  14.388 0.517645 8.34965
RightLeg  10.7211 10.6642 1.19318
RightFoot  -14.2809 -0.0367809 -4.0801
RightToes  1.80444e-009 -3.18055e-015 8.94531e-016
Spine  -2.19118 5.72901 17.8147
Spine1  12.4314 9.14733 -12.5462
HEad  -7.12566 -5.8989 4.51249
LeftShoulder1  0 -2.69403e-036 -1.28585e-037
LeftArm  4.37401 58.7494 -44.2332
LeftForeArm  1.50766 -1.47898 -4.71378
LeftHand  1.14389 8.99099 -6.38549
RightShoulder  -2.48481e-017 0 -8.08114e-019
RightArm  14.2789 12.0836 72.8314
RightForeArm  -41.3097 30.0729 -26.9492
RightHand  1.68292 -13.4687 -5.69357
LeftUpLeg  -26.2391 -2.0871 1.61787
LeftLeg  -3.64022 -1.4772 -0.783228
LeftFoot  0.910214 0.800116 -6.27803
LeftToes  -1.10049e-010 -1.44524e-010 4.8374e-011
18
root  -60.3484 38.0601 1.17333 -45.7429 84.086 -44.3005
RightUpLeg  15.8539 -0.787387 6.59776
RightLeg  14.0097 13.338 1.70427
RightFoot  -15.1147 -0.0270894 -2.19156
RightToes  1.80444e-009 -3.18055e-015 8.94531e-016
Spine  -3.02853 6.0668 16.8055
Spine1  13.1348 9.57601 -12.7334
HEad  -7.36218 -5.73895 4.96259
LeftShoulder1  0 -2.69403e-036 -1.28585e-037
LeftArm  2.65101 59.4549 -42.8807
LeftForeArm  0.172167 -1.13092 -3.87325
LeftHand  1.1846 9.17365 -4.65651
RightShoulder  -2.48481e-017 0 -8.08114e-019
RightArm  9.23366 11.3142 72.5487
RightForeArm  -41.0236 33.2696 -29.3942
RightHand  1.71679 -13.6994 -5.6729
LeftUpLeg  -28.043 -2.56534 0.940119
LeftLeg  1.71079 1.23298 0.429364
LeftFoot  1.1447 0.453751 -3.49473
LeftToes  -1.10049e-010 -1.44524e-010 4.8374e-011
19
root  -58.1957 37.5844 1.11298 -30.7462 84.096 -29.4154
RightUpLeg  16.2145 -3.05949 2.81081
RightLeg  20.1403 17.4957 3.55321
RightFoot  -14.0571 0.0237385 1.16416
RightToes  1.80444e-009 -3.18055e-015 8.94531e-016
Spine  -3.53263 6.40083 14.4622
Spine1  13.3829 9.85854 -12.6153
HEad  -7.55045 -5.75608 5.76065
LeftShoulder1  0 -2.69403e-036 -1.28585e-037
LeftArm  1.19973 60.1714 -43.346
LeftForeArm  -2.97057 -1.02822 -3.58337
LeftHand  1.22339 9.27303 -2.897
RightShoulder  -2.48481e-017 0 -8.08114e-019
RightArm  4.41459 8.60829 72.9482
RightForeArm  -41.9202 37.2638 -32.6981
RightHand  1.71282 -13.993 -4.96638
LeftUpLeg  -29.4713 -4.40444 0.398774
LeftLeg  9.11523 3.93169 2.36847
LeftFoot  5.6964 0.0522548 -0.291032
LeftToes  -1.10049e-010 -1.44524e-010 4.8374e-011
20
root  -56.1468 37.1403 1.04704 -11.157 84.2802 -9.55666
RightUpLeg  14.4195 -4.17576 -1.44143
RightLeg  30.1936 19.4576 6.26986
RightFoot  -7.79712 -0.196643 4.37495
RightToes  1.80444e-009 -3.18055e-015 8.94531e-016
Spine  -2.92802 6.30547 10.8987
Spine1  12.9759 9.606 -12.2632
HEad  -8.00049 -5.72774 6.38674
LeftShoulder1  0 -2.69403e-036 -1.28585e-037
LeftArm  -1.36724 60.2036 -46.1532
LeftForeArm  -5.80849 -1.0178 -3.60533
LeftHand  1.23689 9.44999 -3.30829
RightShoulder  -2.48481e-017 0 -8.08114e-019
RightArm  1.04741 5.05103 73.9172
RightForeArm  -43.6066 41.1803 -36.3585
RightHand  1.64683 -14.0924 -3.79773
LeftUpLeg  -30.7134 -4.57922 -1.43811
LeftLeg  17.2 3.63313 4.08552
LeftFoot  8.66058 -0.335227 1.83806
LeftToes  -1.10049e-010 -1.44524e-010 4.8374e-011
21
root  -54.3019 36.7391 0.976589 8.88968 84.5508 11.1547
RightUpLeg  10.5938 -3.86442 -4.56358
RightLeg  42.0483 17.9183 7.63164
RightFoot  4.46073 -1.10658 7.11154
RightToes  1.80444e-009 -3.18055e-015 8.94531e-016
Spine  -1.42061 5.72829 7.19412
Spine1  12.523 8.77259 -11.8951
HEad  -8.7966 -5.51547 6.36705
LeftShoulder1  0 -2.69403e-036 -1.28585e-037
LeftArm  -6.03519 58.3246 -51.8857
LeftForeArm  -5.99699 -1.04018 -3.6864
LeftHand  1.19745 9.64536 -6.23184
RightShoulder  -2.48481e-017 0 -8.08114e-019
RightArm  -0.568378 1.74381 75.1664
RightForeArm  -44.8851 44.1447 -39.5649
RightHand  1.56086 -13.9052 -2.88426
LeftUpLeg  -31.3738 -2.48825 -4.50237
LeftLeg  25.049 0.617239 5.0831
LeftFoot  6.27528 -0.546266 3.27057
LeftToes  -1.10049e-010 -1.44524e-010 4.8374e-011
22
root  -52.6534 36.4159 0.909282 27.3798 84.5895 30.2899
RightUpLeg  5.39279 -2.80177 -6.30819
RightLeg  52.7045 14.5358 5.90423
RightFoot  15.7983 -2.7852 10.6281
RightToes  1.80444e-009 -3.18055e-015 8.94531e-016
Spine  -0.0747333 5.07075 4.0676
Spine1  12.6864 7.75928 -11.8055
HEad  -9.1415 -5.18676 5.77263
LeftShoulder1  0 -2.69403e-036 -1.28585e-037
LeftArm  -10.9932 54.1678 -59.0953
LeftForeArm  -3.84243 -0.951473 -4.0539
LeftHand  1.14642 9.57668 -8.77524
RightShoulder  -2.48481e-017 0 -8.08114e-019
RightArm  -1.12266 -1.07387 76.3812
RightForeArm  -45.2497 46.1615 -42.0729
RightHand  1.48607 -13.6231 -2.27417
LeftUpLeg  -31.0814 -0.523669 -7.22553
LeftLeg  31.2475 -2.12215 5.30064
LeftFoot  0.974191 -0.543944 4.36951
LeftToes  -1.10049e-010 -1.44524e-010 4.8374e-011
23
root  -51.014 36.3886 0.840062 40.9736 84.6354 44.2287
RightUpLeg  -0.332095 -1.75139 -6.75571
RightLeg  60.6384 11.9179 2.7319
RightFoot  20.0096 -3.70095 12.4252
RightToes  1.80444e-009 -3.18055e-015 8.94531e-016
Spine  0.291179 4.37343 2.0555
Spine1  13.0654 6.72929 -11.7101
HEad  -8.30213 -4.8069 5.03336
LeftShoulder1  0 -2.69403e-036 -1.28585e-037
LeftArm  -13.7349 49.1044 -65.6542
LeftForeArm  -2.47606 -2.81408 -4.4427
LeftHand  1.13901 9.25596 -8.07419
RightShoulder  -2.48481e-017 0 -8.08114e-019
RightArm  -1.52429 -3.76389 77.3396
RightForeArm  -45.7081 48.0133 -44.6199
RightHand  1.4365 -13.489 -1.74552
LeftUpLeg  -29.3553 0.21635 -8.79189
LeftLeg  34.4313 -3.57073 5.14265
LeftFoot  -3.3988 -0.412063 4.59031
LeftToes  -1.10049e-010 -1.44524e-010 4.8374e-011
24
root  -49.2902 36.7112 0.769204 51.2827 85.2004 54.7458
RightUpLeg  -5.8803 -0.952258 -5.9656
RightLeg  65.2661 11.0077 1.06708
RightFoot  17.5118 -2.79052 10.1301
RightToes  1.80444e-009 -3.18055e-015 8.94531e-016
Spine  -0.0621846 3.46187 0.981681
Spine1  13.1313 5.47375 -10.9954
HEad  -6.60358 -4.29308 4.41393
LeftShoulder1  0 -2.69403e-036 -1.28585e-037
LeftArm  -7.49517 44.7861 -71.2861
LeftForeArm  -10.5645 -11.7881 -1.93172
LeftHand  1.13106 8.68878 -5.07298
RightShoulder  -2.48481e-017 0 -8.08114e-019
RightArm  -2.10337 -6.40647 77.9044
RightForeArm  -47.4933 50.3983 -48.2245
RightHand  1.44138 -13.5584 -1.69538
LeftUpLeg  -26.171 -0.148198 -9.16437
LeftLeg  34.8122 -3.94599 4.96034
LeftFoot  -5.98426 -0.265023 3.79737
LeftToes  -1.10049e-010 -1.44524e-010 4.8374e-011
